<mxfile host="app.diagrams.net" modified="2024-04-21T01:36:24.456Z" agent="Mozilla/5.0 (Windows NT 10.0; Win64; x64) AppleWebKit/537.36 (KHTML, like Gecko) Chrome/124.0.0.0 Safari/537.36" version="23.0.2" etag="Y8YYpU3uY2UqcB6USnmu" type="github">
  <diagram name="第 1 页" id="cJjkwoRsPrPH35fzv9R0">
    <mxGraphModel>
      <root>
        <mxCell id="0" />
        <mxCell id="1" parent="0" />
      </root>
    </mxGraphModel>
  </diagram>
</mxfile>
